<?xml version="1.0" standalone="no"?><!DOCTYPE svg PUBLIC "-//W3C//DTD SVG 1.1//EN" "http://www.w3.org/Graphics/SVG/1.1/DTD/svg11.dtd"><svg class="icon" width="200px" height="200.00px" viewBox="0 0 1024 1024" version="1.1" xmlns="http://www.w3.org/2000/svg"><path fill="#333333" d="M384.948148 487.348148H185.837037c-53.096296 0-94.814815-41.718519-94.814815-94.814815V195.318519c0-53.096296 41.718519-94.814815 94.814815-94.814815h199.111111c53.096296 0 94.814815 41.718519 94.814815 94.814815v199.111111c0 51.2-43.614815 92.918519-94.814815 92.918518zM185.837037 176.355556c-9.481481 0-18.962963 9.481481-18.962963 18.962963v199.111111c0 9.481481 9.481481 18.962963 18.962963 18.962963h199.111111c9.481481 0 18.962963-9.481481 18.962963-18.962963V195.318519c0-9.481481-9.481481-18.962963-18.962963-18.962963H185.837037zM819.2 487.348148H621.985185c-53.096296 0-94.814815-41.718519-94.814815-94.814815V195.318519c0-53.096296 41.718519-94.814815 94.814815-94.814815h199.111111c53.096296 0 94.814815 41.718519 94.814815 94.814815v199.111111c-1.896296 51.2-43.614815 92.918519-96.711111 92.918518zM621.985185 176.355556c-9.481481 0-18.962963 9.481481-18.962963 18.962963v199.111111c0 9.481481 9.481481 18.962963 18.962963 18.962963h199.111111c9.481481 0 18.962963-9.481481 18.962963-18.962963V195.318519c0-9.481481-9.481481-18.962963-18.962963-18.962963H621.985185zM384.948148 923.496296H185.837037c-53.096296 0-94.814815-41.718519-94.814815-94.814815V629.57037c0-53.096296 41.718519-94.814815 94.814815-94.814814h199.111111c53.096296 0 94.814815 41.718519 94.814815 94.814814v199.111111c0 53.096296-43.614815 94.814815-94.814815 94.814815zM185.837037 610.607407c-9.481481 0-18.962963 9.481481-18.962963 18.962963v199.111111c0 9.481481 9.481481 18.962963 18.962963 18.962963h199.111111c9.481481 0 18.962963-9.481481 18.962963-18.962963V629.57037c0-9.481481-9.481481-18.962963-18.962963-18.962963H185.837037zM819.2 923.496296H621.985185c-53.096296 0-94.814815-41.718519-94.814815-94.814815V629.57037c0-53.096296 41.718519-94.814815 94.814815-94.814814h199.111111c53.096296 0 94.814815 41.718519 94.814815 94.814814v199.111111c-1.896296 53.096296-43.614815 94.814815-96.711111 94.814815zM621.985185 610.607407c-9.481481 0-18.962963 9.481481-18.962963 18.962963v199.111111c0 9.481481 9.481481 18.962963 18.962963 18.962963h199.111111c9.481481 0 18.962963-9.481481 18.962963-18.962963V629.57037c0-9.481481-9.481481-18.962963-18.962963-18.962963H621.985185z"  /></svg>