<?xml version="1.0" standalone="no"?><!DOCTYPE svg PUBLIC "-//W3C//DTD SVG 1.1//EN" "http://www.w3.org/Graphics/SVG/1.1/DTD/svg11.dtd"><svg class="icon" width="200px" height="200.00px" viewBox="0 0 1024 1024" version="1.1" xmlns="http://www.w3.org/2000/svg"><path fill="#000000" d="M504.533333 883.2h-97.066666c-178.133333 0-323.2-145.066667-323.2-323.2V434.133333c0-5.333333 4.266667-10.666667 10.666666-10.666666h723.2c5.333333 0 10.666667 4.266667 10.666667 10.666666v125.866667C827.733333 738.133333 682.666667 883.2 504.533333 883.2zM104.533333 444.8v115.2c0 166.4 135.466667 302.933333 302.933334 302.933333h97.066666c166.4 0 302.933333-135.466667 302.933334-302.933333V444.8H104.533333z"  /><path fill="#000000" d="M746.666667 781.866667c-9.6 0-13.866667-4.266667-16-8.533334-2.133333-5.333333 0-11.733333 4.266666-13.866666 4.266667-2.133333 8.533333-1.066667 11.733334 2.133333 24.533333 0 152.533333-69.333333 173.866666-172.8 7.466667-37.333333-10.666667-72.533333-42.666666-82.133333-17.066667-5.333333-35.2-3.2-51.2 5.333333-5.333333 3.2-11.733333 1.066667-13.866667-4.266667-3.2-5.333333-1.066667-11.733333 4.266667-13.866666 20.266667-11.733333 45.866667-14.933333 68.266666-7.466667 43.733333 12.8 67.2 58.666667 57.6 106.666667-24.533333 110.933333-151.466667 183.466667-192 188.8H746.666667zM250.666667 795.733333c-2.133333 0-4.266667-1.066667-5.333334-2.133333-106.666667-70.4-122.666667-198.4-122.666666-203.733333-1.066667-5.333333 3.2-10.666667 9.6-11.733334 5.333333-1.066667 10.666667 3.2 11.733333 9.6 0 1.066667 14.933333 123.733333 114.133333 188.8 5.333333 3.2 6.4 9.6 3.2 14.933334-4.266667 2.133333-7.466667 4.266667-10.666666 4.266666zM817.066667 921.6H93.866667c-5.333333 0-10.666667-4.266667-10.666667-10.666667s4.266667-10.666667 10.666667-10.666666h723.2c5.333333 0 10.666667 4.266667 10.666666 10.666666s-4.266667 10.666667-10.666666 10.666667zM131.2 568.533333c-5.333333 0-10.666667-4.266667-10.666667-10.666666v-32c0-5.333333 4.266667-10.666667 10.666667-10.666667s10.666667 4.266667 10.666667 10.666667v32c0 5.333333-5.333333 10.666667-10.666667 10.666666zM318.933333 256c-4.266667 0-7.466667-2.133333-9.6-5.333333-2.133333-5.333333 0-11.733333 4.266667-13.866667 28.8-13.866667 40.533333-49.066667 25.6-76.8-8.533333-17.066667-24.533333-28.8-43.733333-30.933333-5.333333-1.066667-9.6-6.4-8.533334-11.733334 1.066667-5.333333 6.4-9.6 11.733334-8.533333 25.6 3.2 48 19.2 59.733333 42.666667 9.6 19.2 10.666667 40.533333 4.266667 59.733333-6.4 20.266667-20.266667 36.266667-39.466667 45.866667-1.066667-2.133333-2.133333-1.066667-4.266667-1.066667z"  /><path fill="#000000" d="M337.066667 384h-2.133334c-24.533333-4.266667-44.8-20.266667-55.466666-42.666667-9.6-19.2-10.666667-40.533333-4.266667-59.733333 6.4-20.266667 20.266667-36.266667 39.466667-45.866667 5.333333-2.133333 11.733333 0 13.866666 4.266667 2.133333 5.333333 0 11.733333-4.266666 13.866667-13.866667 6.4-24.533333 18.133333-28.8 33.066666-5.333333 14.933333-4.266667 29.866667 3.2 43.733334 8.533333 16 22.4 27.733333 40.533333 30.933333 5.333333 1.066667 9.6 6.4 8.533333 12.8-1.066667 5.333333-5.333333 9.6-10.666666 9.6z"  /><path fill="#000000" d="M448 256c-4.266667 0-7.466667-2.133333-9.6-5.333333-2.133333-5.333333 0-11.733333 4.266667-13.866667 13.866667-6.4 24.533333-18.133333 28.8-33.066667 5.333333-14.933333 4.266667-29.866667-3.2-43.733333-8.533333-17.066667-24.533333-28.8-43.733334-30.933333-5.333333-1.066667-9.6-6.4-8.533333-11.733334 1.066667-5.333333 6.4-9.6 11.733333-8.533333 25.6 3.2 48 19.2 59.733334 42.666667 9.6 19.2 10.666667 40.533333 4.266666 59.733333-6.4 20.266667-20.266667 36.266667-39.466666 45.866667-1.066667-2.133333-2.133333-1.066667-4.266667-1.066667z"  /><path fill="#000000" d="M465.066667 384h-2.133334c-24.533333-4.266667-44.8-20.266667-55.466666-42.666667-9.6-19.2-10.666667-40.533333-4.266667-59.733333 6.4-20.266667 20.266667-36.266667 39.466667-45.866667 5.333333-2.133333 11.733333 0 13.866666 4.266667 2.133333 5.333333 0 11.733333-4.266666 13.866667-13.866667 6.4-24.533333 18.133333-28.8 33.066666-5.333333 14.933333-4.266667 29.866667 3.2 43.733334 8.533333 16 22.4 27.733333 40.533333 30.933333 5.333333 1.066667 9.6 6.4 8.533333 12.8-1.066667 5.333333-5.333333 9.6-10.666666 9.6z"  /><path fill="#000000" d="M577.066667 256c-4.266667 0-7.466667-2.133333-9.6-5.333333-2.133333-5.333333 0-11.733333 4.266666-13.866667 28.8-13.866667 40.533333-49.066667 25.6-76.8-8.533333-17.066667-24.533333-28.8-43.733333-30.933333-5.333333-1.066667-9.6-6.4-8.533333-11.733334 1.066667-5.333333 6.4-9.6 11.733333-8.533333 25.6 3.2 48 19.2 59.733333 42.666667 19.2 38.4 3.2 86.4-35.2 105.6-1.066667-2.133333-3.2-1.066667-4.266666-1.066667z"  /><path fill="#000000" d="M594.133333 384h-2.133333c-24.533333-4.266667-44.8-20.266667-55.466667-42.666667-9.6-19.2-10.666667-40.533333-4.266666-59.733333 6.4-20.266667 20.266667-36.266667 39.466666-45.866667 5.333333-2.133333 11.733333 0 13.866667 4.266667 2.133333 5.333333 0 11.733333-4.266667 13.866667-13.866667 6.4-24.533333 18.133333-28.8 33.066666s-4.266667 29.866667 3.2 43.733334c8.533333 16 22.4 27.733333 40.533334 30.933333 5.333333 1.066667 9.6 6.4 8.533333 12.8-1.066667 5.333333-5.333333 9.6-10.666667 9.6z"  /></svg>