<?xml version="1.0" standalone="no"?><!DOCTYPE svg PUBLIC "-//W3C//DTD SVG 1.1//EN" "http://www.w3.org/Graphics/SVG/1.1/DTD/svg11.dtd"><svg class="icon" width="200px" height="200.00px" viewBox="0 0 1024 1024" version="1.1" xmlns="http://www.w3.org/2000/svg"><path fill="#ffffff" d="M787.113825 290.074561l-19.010983-34.992979-92.947925 102.340853c0 0-6.89606 8.775874-19.527752 8.775874-26.442232 0-89.86368 0.001023-100.183723 0.001023-13.099343 0-20.309558-9.676383-20.309558-9.676383l-78.099752-98.822726-22.137183 28.542056c-3.377934 4.355191-82.352613 108.026342-49.628304 226.467895 24.235984 87.727017 79.604012 120.352065 121.784694 132.275629 44.073798 12.45773 81.651648 4.966105 85.788875 4.071735 15.266705-3.302209 24.966625-18.35402 21.664416-33.620725-3.304256-15.263635-18.352997-24.961508-33.618679-21.662369-0.26606 0.060375-27.52796 5.52483-58.449203-3.217275-41.014112-11.592013-68.821435-42.85197-82.652442-92.90904-15.70775-56.855916 3.664459-111.547539 20.466124-144.655588l37.863353 47.908126c0 0 16.186657 21.858844 45.215808 21.858844 20.518313 0 86.412069-0.001023 123.287931-0.001023 26.972305 0 43.326784-19.517519 43.326784-19.517519l44.38693-48.871057c17.2335 43.065841 39.539528 116.383684 25.28078 181.799556-9.636474 44.206828-32.205493 83.670631-65.265446 114.124224-31.425733 28.948309-70.895677 48.855708-114.143667 57.56916-27.03268 5.449106-54.393841 6.250354-80.9558 2.523473-18.648732-2.915399-35.626405-7.457856-51.134611-13.283538-37.255509-14.400988-69.332065-37.794791-95.597265-69.721945-7.335059-9.255805-13.856589-18.878976-19.629059-28.697599-32.233122-54.831816-42.434461-116.26805-45.097104-178.853457-2.065032-48.535413-36.792974-78.533634-84.945671-59.34562-57.115835 22.75833-31.251771 122.834606-31.251771 122.834606 67.387783 244.152672 249.892397 280.752242 331.711867 284.499589 9.552563 0.940418 19.165502 1.430582 28.811186 1.430582 19.72218 0 39.572274-1.970888 59.258639-5.937223 53.397141-10.759041 102.255918-35.45449 141.29505-71.415516 41.654702-38.370913 70.081125-88.053452 82.207303-143.67833C861.056907 428.119591 790.144858 295.65465 787.113825 290.074561z" /></svg>