<?xml version="1.0" standalone="no"?><!DOCTYPE svg PUBLIC "-//W3C//DTD SVG 1.1//EN" "http://www.w3.org/Graphics/SVG/1.1/DTD/svg11.dtd"><svg class="icon" width="200px" height="200.00px" viewBox="0 0 1024 1024" version="1.1" xmlns="http://www.w3.org/2000/svg"><path fill="#000000" d="M796.672 606.208c-6.656 0-13.312-2.56-18.432-7.68a25.958 25.958 0 0 1 0-36.864l93.184-93.184c20.992-20.992 4.608-46.592-13.312-64.512l-192-192c-15.36-15.36-26.112-19.456-32.256-20.48-4.608-0.512-11.264-0.512-20.48 8.704L427.52 386.048c27.136 17.408 57.856 19.456 77.312 2.56 33.28-29.184 80.896-80.896 81.408-81.408 9.728-10.752 26.112-11.264 36.864-1.536 10.752 9.728 11.264 26.112 1.536 36.864-2.048 2.048-50.176 54.272-85.504 85.504-46.08 40.448-118.784 30.72-169.472-22.528-9.728-10.24-9.728-26.624 0.512-36.352L576 163.328c35.84-35.84 83.456-31.744 126.976 11.776l192 192c46.592 46.592 51.712 99.84 13.312 138.24l-93.184 93.184c-5.12 5.12-11.776 7.68-18.432 7.68z"  /><path fill="#000000" d="M512.512 885.248c-3.584 0-7.68 0-11.264-0.512-22.528-3.072-44.032-13.824-60.928-30.72L231.936 645.12c-34.816-34.816-51.2-62.464-66.048-86.528-8.704-14.336-16.896-28.16-28.16-42.496-3.072-4.096-6.656-8.192-10.24-12.288-21.504-26.112-34.816-43.008-35.84-60.416 0-1.024 0-2.048-0.512-3.072-1.536-15.36-5.12-47.616 31.744-84.48l166.4-166.4c37.376-37.376 81.408-15.872 110.592-1.024l4.608 2.048c4.608 2.048 9.728 4.608 14.336 7.168 29.184 14.336 66.048 31.744 97.792 59.392 10.752 9.216 12.288 26.112 2.56 36.864-9.216 10.752-26.112 12.288-36.864 2.56-26.624-23.04-59.904-38.912-86.528-51.712-5.12-2.56-10.24-5.12-15.36-7.168l-4.608-2.56c-32.768-16.384-41.472-17.92-50.688-8.704l-165.376 166.4c-19.456 19.456-17.92 30.72-16.896 41.984 0 1.024 0 1.536 0.512 2.56 2.56 6.656 16.896 23.552 24.576 32.768 3.584 4.608 7.68 9.216 10.752 13.312 13.824 17.408 23.04 32.768 32.256 48.128 14.336 24.064 27.648 46.592 57.856 76.8L477.184 816.64c8.704 8.704 19.968 14.336 30.72 15.872 7.68 1.024 14.336-0.512 17.92-3.584 10.24-10.24 62.464-56.32 135.168-120.32 40.96-35.84 87.04-76.288 91.648-81.408 0.512-0.512 27.136-34.816 2.56-59.392L562.688 375.296c-10.24-10.24-10.24-26.624 0-36.864s26.624-10.24 36.864 0l192.512 192.512c21.504 21.504 29.696 50.176 23.552 80.384-4.608 22.528-16.384 43.008-26.112 52.736-5.632 5.632-37.888 33.792-94.208 83.456-54.784 48.128-122.88 108.032-132.608 117.76-12.288 12.8-30.208 19.968-50.176 19.968zM142.848 436.736z"  /><path fill="#000000" d="M729.6 687.616c-6.656 0-13.312-2.56-18.432-7.68l-93.696-93.696c-10.24-10.24-10.24-26.624 0-36.864s26.624-10.24 36.864 0l93.696 93.696a25.958 25.958 0 0 1 0 36.864c-4.608 5.12-11.264 7.68-18.432 7.68z m-65.536 66.048c-6.656 0-13.312-2.56-18.432-7.68l-93.696-93.696c-10.24-10.24-10.24-26.624 0-36.864s26.624-10.24 36.864 0l93.696 93.696a25.958 25.958 0 0 1 0 36.864c-5.12 5.12-11.776 7.68-18.432 7.68z m-71.168 71.168c-6.656 0-13.312-2.56-18.432-7.68l-93.696-93.696c-10.24-10.24-10.24-26.624 0-36.864s26.624-10.24 36.864 0l93.696 93.696a25.958 25.958 0 0 1 0 36.864c-5.12 5.12-11.776 7.68-18.432 7.68z"  /></svg>