<?xml version="1.0" standalone="no"?><!DOCTYPE svg PUBLIC "-//W3C//DTD SVG 1.1//EN" "http://www.w3.org/Graphics/SVG/1.1/DTD/svg11.dtd"><svg class="icon" width="200px" height="200.00px" viewBox="0 0 1024 1024" version="1.1" xmlns="http://www.w3.org/2000/svg"><path d="M980.82304 601.56416l-937.6512 0c-24.51455999 0-36.5312 29.85472-18.816 46.848l267.3664 255.71328c17.23392 16.50688 45.99296 4.2496 45.99296-19.6608l0-146.9696a27.14624 27.14624 0 0 1 27.19232-27.18719999L980.82304 710.30784001a27.14624 27.14624 0 0 0 27.1872-27.18720001l0-54.3744a27.21792 27.21792 0 0 0-27.1872-27.18208z" fill="#29A1F7" /><path d="M43.17696 422.43584L980.82304 422.43584c24.51455999 0 36.5312-29.85472 18.81087999-46.84288l-267.36127999-255.71328c-17.23392-16.50688-45.99808-4.24448-45.99808 19.66592L686.27456 286.5152a27.14112 27.14112 0 0 1-27.1872 27.18208l-616.04352 1e-8a27.14624 27.14624 0 0 0-27.18208 27.19231999l0 54.36927999c0.128 14.91968 12.2624 27.17696 27.3152 27.17696001z" fill="#CCCCCC" /></svg>
