<?xml version="1.0" standalone="no"?><!DOCTYPE svg PUBLIC "-//W3C//DTD SVG 1.1//EN" "http://www.w3.org/Graphics/SVG/1.1/DTD/svg11.dtd"><svg class="icon" width="200px" height="200.00px" viewBox="0 0 1024 1024" version="1.1" xmlns="http://www.w3.org/2000/svg"><path d="M43.17696 422.43584h937.6512c24.51456 0 36.5312-29.85472 18.816-46.848l-267.3664-255.71328c-17.23392-16.50688-45.99296-4.2496-45.99296 19.6608v146.9696a27.14624 27.14624 0 0 1-27.19232 27.1872H43.17696a27.14624 27.14624 0 0 0-27.1872 27.1872v54.3744a27.21792 27.21792 0 0 0 27.1872 27.18208z" fill="#29A1F7" /><path d="M980.82304 601.56416H43.17696c-24.51456 0-36.5312 29.85472-18.81088 46.84288l267.36128 255.71328c17.23392 16.50688 45.99808 4.24448 45.99808-19.66592V737.4848a27.14112 27.14112 0 0 1 27.1872-27.18208h616.04352a27.14624 27.14624 0 0 0 27.18208-27.19232v-54.36928c-0.128-14.91968-12.2624-27.17696-27.3152-27.17696z" fill="#CCCCCC" /></svg>