<?xml version="1.0" standalone="no"?><!DOCTYPE svg PUBLIC "-//W3C//DTD SVG 1.1//EN" "http://www.w3.org/Graphics/SVG/1.1/DTD/svg11.dtd"><svg t="1542527425436" class="icon" style="" viewBox="0 0 1024 1024" version="1.1" xmlns="http://www.w3.org/2000/svg" p-id="2642" xmlns:xlink="http://www.w3.org/1999/xlink" width="200" height="200"><defs><style type="text/css"></style></defs><path d="M506.893648 16.445242c-138.342213 0-253.107508 110.241419-253.107508 246.201372 0 135.957939 113.518788 256.142221 251.861001 256.142221 138.335165 0 251.691846-120.184281 251.691846-256.142221C757.33798 126.686661 645.226799 16.445242 506.893648 16.445242zM505.573639 456.864187c-104.483118 0-189.18724-84.712177-189.18724-189.175157 0-104.529434 84.703115-189.18724 189.18724-189.18724 104.52742 0 189.231542 84.658813 189.231542 189.18724C694.805181 372.15201 610.101059 456.864187 505.573639 456.864187z" p-id="2643" fill="#1296db"></path><path d="M724.253169 458.842691c-155.94133 0-282.35815 126.415813-282.35815 282.35815 0 155.94133 126.416819 282.35815 282.35815 282.35815s282.35815-126.416819 282.35815-282.35815C1006.610312 585.258504 880.194499 458.842691 724.253169 458.842691zM725.556062 960.533831c-121.5496 0-220.08311-98.534517-220.08311-220.084117 0-121.548593 98.53351-220.08311 220.08311-220.08311s220.08311 98.534517 220.08311 220.08311C945.640179 861.998307 847.105662 960.533831 725.556062 960.533831z" p-id="2644" fill="#1296db"></path><path d="M703.053477 959.879364c-60.096168 0-114.553852-24.105525-154.259854-63.1631L65.374192 896.716264C65.423528 672.720448 295.725384 518.612633 504.427818 518.612633c0.482292 0 0.963577 0.007048 1.446875 0.008055 0.482292-0.001007 0.963577-0.008055 1.446875-0.008055 35.179104 0 70.971394 4.495684 106.171642 13.022884 21.120149 5.115917 93.447799-36.899849 64.021962-46.747058-54.492925-18.236467-112.181662-28.126972-170.193605-28.126972-0.483299 0-0.96257 0.007048-1.446875 0.008055-0.483299-0.001007-0.96257-0.008055-1.446875-0.008055-254.26239 0-502.310366 189.990724-502.310366 439.954777l0 63.203375 787.180662 0C789.298114 959.919639 763.148639 959.879364 703.053477 959.879364z" p-id="2645" fill="#1296db"></path><path d="M883.390311 708.858095 757.069145 708.858095 757.069145 582.98398 693.972498 582.98398 693.972498 708.858095 568.742781 708.858095 568.742781 771.955749 693.972498 771.955749 693.972498 897.128074 757.069145 897.128074 757.069145 771.955749 883.390311 771.955749Z" p-id="2646" fill="#1296db"></path></svg>