<?xml version="1.0" standalone="no"?><!DOCTYPE svg PUBLIC "-//W3C//DTD SVG 1.1//EN" "http://www.w3.org/Graphics/SVG/1.1/DTD/svg11.dtd"><svg t="1542527383651" class="icon" style="" viewBox="0 0 1024 1024" version="1.1" xmlns="http://www.w3.org/2000/svg" p-id="2351" xmlns:xlink="http://www.w3.org/1999/xlink" width="200" height="200"><defs><style type="text/css"></style></defs><path d="M273.066667 716.8h68.266666c0.136533 18.909867 15.394133 34.133333 34.2016 34.133333h341.1968A34.474667 34.474667 0 0 0 750.933333 716.561067V307.438933C750.933333 288.426667 735.607467 273.066667 716.731733 273.066667h-341.1968A34.474667 34.474667 0 0 0 341.333333 307.2H273.066667V272.896C273.066667 235.281067 303.616 204.8 341.128533 204.8h410.0096C788.718933 204.8 819.2 235.281067 819.2 272.896v478.208A68.130133 68.130133 0 0 1 751.138133 819.2H341.128533A68.061867 68.061867 0 0 1 273.066667 751.104V716.8z" fill="#1296db" p-id="2352"></path><path d="M518.826667 525.653333a102.4 102.4 0 1 1 122.88 0c47.854933 23.313067 75.093333 73.079467 75.093333 122.88 0 34.133333-34.133333 34.133333-68.266667 34.133334h-136.533333c-34.133333 0-68.266667 0-68.266667-34.133334 0-49.800533 27.2384-99.566933 75.093334-122.88zM204.8 375.466667a34.133333 34.133333 0 0 1 33.792-34.133334h137.216c18.6368 0 33.792 15.1552 33.792 34.133334a34.133333 34.133333 0 0 1-33.792 34.133333H238.592A33.8944 33.8944 0 0 1 204.8 375.466667z m0 136.533333a34.133333 34.133333 0 0 1 33.792-34.133333h137.216c18.6368 0 33.792 15.1552 33.792 34.133333a34.133333 34.133333 0 0 1-33.792 34.133333H238.592A33.8944 33.8944 0 0 1 204.8 512z m0 136.533333a34.133333 34.133333 0 0 1 33.792-34.133333h137.216c18.6368 0 33.792 15.1552 33.792 34.133333a34.133333 34.133333 0 0 1-33.792 34.133334H238.592A33.8944 33.8944 0 0 1 204.8 648.533333z" fill="#1296db" p-id="2353"></path></svg>